#!OML:ASF E:\pregnant2\Project 1\Capture day 1\Session 1\pregnant2.ASF
:FULLY-SPECIFIED
:DEGREES
2721
root -6.72924 16.7126 39.3979 -336.772 63.0078 353.557
lowerback -15.9726 -2.95341 0.653307
upperback -16.1055 -2.89821 4.1434
thorax -8.36922 -0.869358 3.80706
lowerneck -0.662349 -16.7581 -23.6167
upperneck 21.8704 -23.9094 10.9678
head 11.4728 -12.1453 4.35776
rclavicle 2.78299e-015 1.03368e-014
rhumerus -96.2422 43.3066 -112.793
rradius 87.1739
rwrist -6.55682
rhand 21.2488 -10.9732
rfingers 7.12502
rthumb 225.697 -214.193
lclavicle 2.78299e-015 1.03368e-014
lhumerus -70.1568 -17.0024 83.6052
lradius 91.4492
lwrist -9.00182
lhand -4.16701 25.0572
lfingers 7.12502
lthumb 201.594 -126.127
rfemur -47.3846 7.58532 21.6096
rtibia 34.6078
rfoot -15.4191 -13.182
rtoes 6.21213
lfemur -40.1829 0.347108 -11.7789
ltibia 55.1735
lfoot -14.7142 1.38741
ltoes -17.8514
2722
root -6.70259 16.7857 39.4748 -335.602 62.623 354.735
lowerback -16.0652 -3.06848 -0.176153
upperback -16.1131 -2.98135 4.11451
thorax -8.28012 -0.833381 4.228
lowerneck -0.204851 -16.9738 -24.0803
upperneck 21.5573 -24.3297 11.235
head 11.457 -12.368 4.4507
rclavicle 1.30204e-014 1.55052e-014
rhumerus -96.7035 43.7428 -113.382
rradius 86.5425
rwrist -6.088
rhand 20.9512 -11.0955
rfingers 7.12502
rthumb 225.42 -214.428
lclavicle 1.30204e-014 1.55052e-014
lhumerus -69.9506 -16.8059 83.4353
lradius 92.0212
lwrist -8.57425
lhand -3.90424 24.9674
lfingers 7.12502
lthumb 201.846 -126.246
rfemur -47.3577 7.78415 21.0937
rtibia 34.8462
rfoot -15.7701 -13.1817
rtoes 6.24035
lfemur -40.4815 1.14787 -12.6033
ltibia 55.6671
lfoot -13.557 1.14355
ltoes -16.7118
2723
root -6.68279 16.781 39.541 -334.465 62.1756 355.927
lowerback -16.0882 -3.16798 -1.02635
upperback -16.1166 -3.04288 4.06296
thorax -8.22744 -0.786443 4.64181
lowerneck 0.297018 -17.1345 -24.4911
upperneck 21.1583 -24.6951 11.5691
head 11.3949 -12.5601 4.57826
rclavicle 7.25564e-015 -3.1408e-014
rhumerus -97.2312 44.1114 -114.006
rradius 85.9565
rwrist -5.65175
rhand 20.3881 -11.279
rfingers 7.12502
rthumb 224.896 -214.819
lclavicle 7.25564e-015 -3.1408e-014
lhumerus -69.8106 -16.6486 83.2858
lradius 92.6201
lwrist -8.19292
lhand -3.5921 24.9059
lfingers 7.12502
lthumb 202.146 -126.342
rfemur -47.4988 7.97144 20.542
rtibia 35.2164
rfoot -16.0314 -13.1514
rtoes 6.21232
lfemur -40.9566 1.94869 -13.4743
ltibia 56.4073
lfoot -12.5951 1.17805
ltoes -15.6139
2724
root -6.66261 16.7773 39.6051 -333.338 61.6726 357.182
lowerback -16.0358 -3.26777 -1.93032
upperback -16.1029 -3.10413 3.99757
thorax -8.19561 -0.73633 5.07444
lowerneck 0.777496 -17.2614 -24.8308
upperneck 20.7213 -25.0073 11.897
head 11.3034 -12.7237 4.70609
rclavicle 1.59028e-015 2.06736e-014
rhumerus -97.7777 44.4508 -114.621
rradius 85.4058
rwrist -5.15126
rhand 19.7162 -11.4666
rfingers 7.12502
rthumb 224.271 -215.248
lclavicle 1.59028e-015 2.06736e-014
lhumerus -69.7206 -16.4813 83.152
lradius 93.231
lwrist -7.88304
lhand -3.24009 24.874
lfingers 7.12502
lthumb 202.484 -126.415
rfemur -47.56 8.12923 19.9468
rtibia 35.5434
rfoot -16.2579 -13.0839
rtoes 6.15729
lfemur -41.3519 2.72614 -14.427
ltibia 57.0863
lfoot -11.8053 1.51112
ltoes -14.6132
2725
root -6.64123 16.7749 39.6669 -332.299 61.1787 358.372
lowerback -15.9529 -3.36687 -2.80219
upperback -16.0816 -3.16958 3.93426
thorax -8.17477 -0.691731 5.49303
lowerneck 1.21387 -17.3807 -25.1154
upperneck 20.2875 -25.2933 12.1874
head 11.2047 -12.873 4.81619
rclavicle -1.66979e-014 2.70347e-014
rhumerus -98.3178 44.754 -115.2
rradius 84.8945
rwrist -4.6127
rhand 19.1125 -11.6286
rfingers 7.12502
rthumb 223.707 -215.62
lclavicle -1.66979e-014 2.70347e-014
lhumerus -69.6835 -16.3047 83.0388
lradius 93.8484
lwrist -7.65562
lhand -2.86451 24.8371
lfingers 7.12502
lthumb 202.844 -126.496
rfemur -47.7206 8.25079 19.3791
rtibia 36.1697
rfoot -16.6589 -12.99
rtoes 6.08173
lfemur -41.7964 3.46232 -15.373
ltibia 57.9051
lfoot -11.3127 2.13905
ltoes -13.6445
2726
root -6.61826 16.7734 39.7264 -331.401 60.7427 359.389
lowerback -15.8799 -3.47008 -3.56882
upperback -16.0641 -3.24888 3.8919
thorax -8.15688 -0.662681 5.87447
lowerneck 1.60217 -17.4962 -25.3419
upperneck 19.8714 -25.555 12.4257
head 11.102 -13.0092 4.90254
rclavicle 6.11263e-014 5.00937e-014
rhumerus -98.831 45.0296 -115.74
rradius 84.4249
rwrist -4.10345
rhand 18.6072 -11.7916
rfingers 7.12502
rthumb 223.235 -215.954
lclavicle 6.11263e-014 5.00937e-014
lhumerus -69.7084 -16.1072 82.9394
lradius 94.4692
lwrist -7.512
lhand -2.48184 24.7844
lfingers 7.12502
lthumb 203.211 -126.594
rfemur -47.8403 8.34041 18.9002
rtibia 36.7021
rfoot -17.018 -12.9066
rtoes 5.99622
lfemur -42.2825 4.14572 -16.2358
ltibia 58.6793
lfoot -10.9685 2.96219
ltoes -12.6241
2727
root -6.59373 16.7724 39.784 -330.713 60.4133 360.112
lowerback -15.8619 -3.57309 -4.1555
upperback -16.0592 -3.33792 3.89488
thorax -8.12844 -0.652293 6.20158
lowerneck 1.90694 -17.6259 -25.5177
upperneck 19.5182 -25.8064 12.5792
head 11.0168 -13.1391 4.94747
rclavicle -1.03964e-013 -6.99722e-014
rhumerus -99.285 45.2789 -116.206
rradius 83.9999
rwrist -3.70954
rhand 18.264 -11.9153
rfingers 7.12502
rthumb 222.915 -216.191
lclavicle -1.03964e-013 -6.99722e-014
lhumerus -69.7855 -15.8864 82.8641
lradius 95.0799
lwrist -7.4511
lhand -2.1068 24.6955
lfingers 7.12502
lthumb 203.571 -126.729
rfemur -47.9474 8.43476 18.5736
rtibia 37.1204
rfoot -17.3296 -12.8779
rtoes 5.88717
lfemur -42.878 4.78841 -16.9344
ltibia 59.4248
lfoot -10.7303 3.89552
ltoes -11.6037
2728
root -6.56759 16.7713 39.8385 -330.224 60.2121 360.536
lowerback -15.9026 -3.6734 -4.53447
upperback -16.0692 -3.43461 3.94133
thorax -8.0902 -0.662264 6.45624
lowerneck 2.19626 -17.7354 -25.6593
upperneck 19.1571 -26.0228 12.7238
head 10.9188 -13.2511 4.9927
rclavicle -2.69353e-014 -7.95139e-015
rhumerus -99.6604 45.5044 -116.588
rradius 83.6284
rwrist -3.50062
rhand 18.0159 -12.0331
rfingers 7.12502
rthumb 222.682 -216.39
lclavicle -2.69353e-014 -7.95139e-015
lhumerus -69.9041 -15.6501 82.8138
lradius 95.6654
lwrist -7.45123
lhand -1.74845 24.5833
lfingers 7.12502
lthumb 203.915 -126.886
rfemur -48.0521 8.51571 18.4172
rtibia 37.4283
rfoot -17.5796 -12.9032
rtoes 5.67037
lfemur -43.6 5.36963 -17.4551
ltibia 60.1387
lfoot -10.5619 4.86784
ltoes -10.5959
2729
root -6.53955 16.7703 39.8892 -329.843 60.1148 360.792
lowerback -15.9784 -3.77659 -4.76274
upperback -16.0902 -3.5438 4.01346
thorax -8.04727 -0.691041 6.65115
lowerneck 2.44445 -17.8269 -25.7605
upperneck 18.8132 -26.2029 12.8537
head 10.8197 -13.3431 5.03333
rclavicle 1.3418e-014 2.8625e-014
rhumerus -99.9478 45.7173 -116.89
rradius 83.3104
rwrist -3.49725
rhand 17.8376 -12.1541
rfingers 7.12502
rthumb 222.516 -216.569
lclavicle 1.3418e-014 2.8625e-014
lhumerus -70.0635 -15.3961 82.789
lradius 96.2286
lwrist -7.4927
lhand -1.41808 24.4652
lfingers 7.12502
lthumb 204.231 -127.046
rfemur -48.1485 8.5726 18.3588
rtibia 37.6492
rfoot -17.7889 -12.9697
rtoes 5.42197
lfemur -44.4087 5.8645 -17.8679
ltibia 60.7954
lfoot -10.4237 5.83099
ltoes -9.72784
2730
root -6.50957 16.7697 39.936 -329.507 60.0842 361.002
lowerback -16.0446 -3.88158 -4.90613
upperback -16.1114 -3.66329 4.08562
thorax -8.01013 -0.73343 6.797
lowerneck 2.64873 -17.8902 -25.8105
upperneck 18.4994 -26.3314 12.9631
head 10.7187 -13.408 5.06963
rclavicle -1.12711e-013 -1.27222e-014
rhumerus -100.14 45.9132 -117.124
rradius 83.0457
rwrist -3.67286
rhand 17.7356 -12.2625
rfingers 7.12502
rthumb 222.42 -216.71
lclavicle -1.12711e-013 -1.27222e-014
lhumerus -70.2516 -15.1335 82.7785
lradius 96.7537
lwrist -7.54762
lhand -1.12212 24.3448
lfingers 7.12502
lthumb 204.515 -127.204
rfemur -48.2078 8.58934 18.3374
rtibia 37.8169
rfoot -17.9712 -13.0582
rtoes 5.10547
lfemur -45.2302 6.26895 -18.2458
ltibia 61.3601
lfoot -10.2948 6.76875
ltoes -9.12
2731
root -6.47746 16.77 39.9791 -329.164 60.0827 361.276
lowerback -16.0599 -3.99117 -5.03539
upperback -16.1223 -3.79509 4.14199
thorax -7.98626 -0.785336 6.91782
lowerneck 2.82646 -17.9356 -25.8449
upperneck 18.2147 -26.4306 13.0708
head 10.6251 -13.4576 5.10788
rclavicle -7.13637e-014 -3.73715e-014
rhumerus -100.24 46.0982 -117.3
rradius 82.8308
rwrist -3.97861
rhand 17.6809 -12.3397
rfingers 7.12502
rthumb 222.369 -216.805
lclavicle -7.13637e-014 -3.73715e-014
lhumerus -70.4668 -14.8657 82.7832
lradius 97.2446
lwrist -7.59453
lhand -0.8611 24.2605
lfingers 7.12502
lthumb 204.765 -127.323
rfemur -48.1974 8.5525 18.2992
rtibia 37.9618
rfoot -18.1543 -13.1402
rtoes 4.80119
lfemur -45.983 6.57356 -18.6384
ltibia 61.8035
lfoot -10.2115 7.62595
ltoes -8.62002
2732
root -6.44325 16.7714 40.0192 -328.806 60.1007 361.641
lowerback -16.0097 -4.10336 -5.16677
upperback -16.121 -3.9368 4.17312
thorax -7.98142 -0.844538 7.01343
lowerneck 2.98258 -17.9669 -25.8618
upperneck 17.9668 -26.5055 13.1662
head 10.5397 -13.4951 5.14338
rclavicle -3.37934e-015 -5.56597e-015
rhumerus -100.252 46.2627 -117.435
rradius 82.6626
rwrist -4.35918
rhand 17.6711 -12.3776
rfingers 7.12502
rthumb 222.36 -216.846
lclavicle -3.37934e-015 -5.56597e-015
lhumerus -70.7057 -14.6019 82.7952
lradius 97.6965
lwrist -7.61541
lhand -0.643193 24.1846
lfingers 7.12502
lthumb 204.974 -127.428
rfemur -48.1082 8.46535 18.2286
rtibia 38.1025
rfoot -18.3608 -13.2135
rtoes 4.55533
lfemur -46.6381 6.78793 -19.0593
ltibia 62.1101
lfoot -10.174 8.35803
ltoes -8.23516
2733
root -6.4072 16.7734 40.0567 -328.459 60.1602 362.053
lowerback -15.9063 -4.22785 -5.28189
upperback -16.1104 -4.10152 4.19565
thorax -7.99042 -0.918329 7.09006
lowerneck 3.09808 -17.9871 -25.8584
upperneck 17.7716 -26.5543 13.2314
head 10.468 -13.5193 5.16816
rclavicle 5.15846e-014 -1.74931e-014
rhumerus -100.196 46.4286 -117.549
rradius 82.5452
rwrist -4.76165
rhand 17.6979 -12.3562
rfingers 7.12502
rthumb 222.385 -216.816
lclavicle 5.15846e-014 -1.74931e-014
lhumerus -70.9633 -14.3242 82.808
lradius 98.1128
lwrist -7.60388
lhand -0.456097 24.1217
lfingers 7.12502
lthumb 205.153 -127.516
rfemur -47.9546 8.33028 18.1568
rtibia 38.2463
rfoot -18.5937 -13.28
rtoes 4.3911
lfemur -47.2157 6.91601 -19.4715
ltibia 62.2824
lfoot -10.163 8.95307
ltoes -7.95595
2734
root -6.36906 16.7759 40.0916 -328.116 60.2566 362.517
lowerback -15.7581 -4.35152 -5.37468
upperback -16.0886 -4.27215 4.19974
thorax -8.01042 -0.999199 7.13507
lowerneck 3.19528 -18.0012 -25.855
upperneck 17.6133 -26.59 13.2802
head 10.4077 -13.5376 5.18816
rclavicle 1.56046e-014 -3.49861e-014
rhumerus -100.061 46.5759 -117.62
rradius 82.4792
rwrist -5.15194
rhand 17.7432 -12.2674
rfingers 7.12502
rthumb 222.427 -216.713
lclavicle 1.56046e-014 -3.49861e-014
lhumerus -71.2298 -14.0645 82.8333
lradius 98.5013
lwrist -7.54663
lhand -0.289523 24.0696
lfingers 7.12502
lthumb 205.313 -127.59
rfemur -47.7361 8.13558 18.086
rtibia 38.3948
rfoot -18.8514 -13.3316
rtoes 4.24944
lfemur -47.7129 6.95891 -19.8781
ltibia 62.325
lfoot -10.1743 9.42527
ltoes -7.77016
